<svg version="1.1" id="Layer_1" xmlns="http://www.w3.org/2000/svg" xmlns:xlink="http://www.w3.org/1999/xlink" x="0px" y="0px"
	 width="40px" height="17px" viewBox="0 0 40 17" enable-background="new 0 0 40 17" xml:space="preserve">
<g>
	<g>
		<g>
			<path fill="#7e889f" d="M35.044,5.271L31.4,1.627c-0.281-0.283-0.743-0.283-1.025,0l-4.932,4.93l-4.928-4.93
				c-0.146-0.145-0.333-0.214-0.523-0.212c-0.189-0.002-0.38,0.067-0.524,0.212l-4.93,4.93L12.431,4.45l-4.67,4.67l6.255,6.255
				c0.146,0.143,0.334,0.217,0.523,0.213c0.19,0.004,0.381-0.07,0.526-0.213l4.928-4.932l4.929,4.932
				c0.145,0.143,0.334,0.217,0.523,0.213c0.19,0.004,0.382-0.07,0.525-0.213l9.073-9.076C35.329,6.015,35.329,5.555,35.044,5.271z"
				/>
		</g>
		<g>
			<path fill="#7e889f" d="M9.626,1.626c-0.283-0.283-0.744-0.283-1.027,0L4.954,5.271c-0.281,0.284-0.281,0.744,0,1.027
				l1.814,1.814l4.671-4.672L9.626,1.626z"/>
		</g>
	</g>
</g>
</svg>
